<?xml version="1.0" encoding="UTF-8"?>
<svg width="48" height="48" viewBox="0 0 48 48" fill="none" xmlns="http://www.w3.org/2000/svg">
  <rect width="48" height="48" rx="12" fill="#00A6FB" fill-opacity="0.1"/>
  <path d="M24 12C18.477 12 14 16.477 14 22C14 27.523 18.477 32 24 32C29.523 32 34 27.523 34 22C34 16.477 29.523 12 24 12ZM29.5 22C29.5 25.038 27.038 27.5 24 27.5C20.962 27.5 18.5 25.038 18.5 22C18.5 18.962 20.962 16.5 24 16.5C27.038 16.5 29.5 18.962 29.5 22Z" fill="#00A6FB"/>
  <path d="M24 14C19.582 14 16 17.582 16 22C16 26.418 19.582 30 24 30C28.418 30 32 26.418 32 22C32 17.582 28.418 14 24 14ZM27.5 22C27.5 23.933 25.933 25.5 24 25.5C22.067 25.5 20.5 23.933 20.5 22C20.5 20.067 22.067 18.5 24 18.5C25.933 18.5 27.5 20.067 27.5 22Z" fill="#00A6FB" fill-opacity="0.5"/>
  <circle cx="24" cy="22" r="4" fill="#00A6FB"/>
</svg> 