<?xml version="1.0" encoding="UTF-8"?>
<svg width="32" height="32" viewBox="0 0 32 32" fill="none" xmlns="http://www.w3.org/2000/svg">
  <rect width="32" height="32" rx="8" fill="#0A0F1C"/>
  <path d="M16 6C10.477 6 6 10.477 6 16C6 21.523 10.477 26 16 26C21.523 26 26 21.523 26 16C26 10.477 21.523 6 16 6ZM21.5 16C21.5 19.038 19.038 21.5 16 21.5C12.962 21.5 10.5 19.038 10.5 16C10.5 12.962 12.962 10.5 16 10.5C19.038 10.5 21.5 12.962 21.5 16Z" fill="#00A6FB"/>
  <path d="M16 8C11.582 8 8 11.582 8 16C8 20.418 11.582 24 16 24C20.418 24 24 20.418 24 16C24 11.582 20.418 8 16 8ZM19.5 16C19.5 17.933 17.933 19.5 16 19.5C14.067 19.5 12.5 17.933 12.5 16C12.5 14.067 14.067 12.5 16 12.5C17.933 12.5 19.5 14.067 19.5 16Z" fill="#00A6FB" fill-opacity="0.5"/>
</svg> 