<?xml version="1.0" standalone="no"?>
<!DOCTYPE svg PUBLIC "-//W3C//DTD SVG 20010904//EN" "http://www.w3.org/TR/2001/REC-SVG-20010904/DTD/svg10.dtd">
<svg version="1.0" xmlns="http://www.w3.org/2000/svg" width="700pt" height="700pt" viewBox="0 0 700 700" preserveAspectRatio="xMidYMid meet">
<metadata>
Created using your logo
</metadata>
<g transform="translate(0.000000,700.000000) scale(0.100000,-0.100000)" fill="#000000" stroke="none">
<path d="M3278 6995 c-498 -49 -960 -180 -1393 -395 -149 -74 -425 -239 -566
-339 -332 -235 -647 -540 -875 -846 -475 -639 -733 -1397 -733 -2155 0 -758
258 -1516 733 -2155 228 -306 543 -611 875 -846 141 -100 417 -265 566 -339
433 -215 895 -346 1393 -395 174 -17 526 -17 700 0 498 49 960 180 1393 395
149 74 425 239 566 339 332 235 647 540 875 846 475 639 733 1397 733 2155 0
758 -258 1516 -733 2155 -228 306 -543 611 -875 846 -141 100 -417 265 -566
339 -433 215 -895 346 -1393 395 -174 17 -526 17 -700 0z m577 -1300 c535 -71
996 -397 1233 -871 131 -262 187 -496 187 -784 0 -288 -56 -522 -187 -784 -237
-474 -698 -800 -1233 -871 -136 -18 -374 -18 -510 0 -535 71 -996 397 -1233
871 -131 262 -187 496 -187 784 0 288 56 522 187 784 237 474 698 800 1233 871
136 18 374 18 510 0z"/>
<path d="M3278 4935 c-498 -49 -960 -180 -1393 -395 -149 -74 -425 -239 -566
-339 -332 -235 -647 -540 -875 -846 -475 -639 -733 -1397 -733 -2155 0 -758
258 -1516 733 -2155 228 -306 543 -611 875 -846 141 -100 417 -265 566 -339
433 -215 895 -346 1393 -395 174 -17 526 -17 700 0 498 49 960 180 1393 395
149 74 425 239 566 339 332 235 647 540 875 846 475 639 733 1397 733 2155 0
758 -258 1516 -733 2155 -228 306 -543 611 -875 846 -141 100 -417 265 -566
339 -433 215 -895 346 -1393 395 -174 17 -526 17 -700 0z m577 -1300 c535 -71
996 -397 1233 -871 131 -262 187 -496 187 -784 0 -288 -56 -522 -187 -784 -237
-474 -698 -800 -1233 -871 -136 -18 -374 -18 -510 0 -535 71 -996 397 -1233
871 -131 262 -187 496 -187 784 0 288 56 522 187 784 237 474 698 800 1233 871
136 18 374 18 510 0z"/>
</g>
</svg> 